<mxfile host="app.diagrams.net" agent="Mozilla/5.0 (Windows NT 10.0; Win64; x64) AppleWebKit/537.36 (KHTML, like Gecko) Chrome/137.0.0.0 Safari/537.36" version="27.1.6">
  <diagram id="home" name="HomePage">
    <mxGraphModel dx="868" dy="439" grid="1" gridSize="10" guides="1" tooltips="1" connect="1" arrows="1" fold="1" page="1" pageScale="1" pageWidth="827" pageHeight="1169" math="0" shadow="0">
      <root>
        <mxCell id="0" />
        <mxCell id="1" parent="0" />
        <mxCell id="2" value="" style="rounded=1;fillColor=#1976d2;strokeColor=#1976d2;" parent="1" vertex="1">
          <mxGeometry x="14" width="800" height="50" as="geometry" />
        </mxCell>
        <mxCell id="3" value="Home   About   To-Do   Login   Register" style="text;html=1;align=left;verticalAlign=middle;fontSize=14;fontColor=#ffffff;" parent="1" vertex="1">
          <mxGeometry x="34" width="760" height="50" as="geometry" />
        </mxCell>
        <mxCell id="4" value="Ласкаво просимо до To-Do List App" style="text;html=1;align=center;verticalAlign=middle;fontSize=24;fontColor=#000000;fontStyle=1;" parent="1" vertex="1">
          <mxGeometry y="70" width="800" height="60" as="geometry" />
        </mxCell>
        <mxCell id="5" value="Увійти" style="rounded=1;fillColor=#1976d2;strokeColor=#1976d2;fontColor=#ffffff;" parent="1" vertex="1">
          <mxGeometry x="280" y="160" width="100" height="40" as="geometry" />
        </mxCell>
        <mxCell id="6" value="Зареєструватися" style="rounded=1;fillColor=#ffffff;strokeColor=#1976d2;fontColor=#1976d2;" parent="1" vertex="1">
          <mxGeometry x="400" y="160" width="150" height="40" as="geometry" />
        </mxCell>
      </root>
    </mxGraphModel>
  </diagram>
</mxfile>
